<svg width="64" height="64" viewBox="0 0 64 64" fill="none" xmlns="http://www.w3.org/2000/svg">
<circle cx="32" cy="32" r="31.5" fill="url(#paint0_linear_433_4)" stroke="#D6B7E5"/>
<path d="M10.4091 37V25.3636H11.8182V35.75H17.2273V37H10.4091ZM28.7741 31.1818C28.7741 32.4091 28.5526 33.4697 28.1094 34.3636C27.6662 35.2576 27.0582 35.947 26.2855 36.4318C25.5128 36.9167 24.6302 37.1591 23.6378 37.1591C22.6454 37.1591 21.7628 36.9167 20.9901 36.4318C20.2173 35.947 19.6094 35.2576 19.1662 34.3636C18.723 33.4697 18.5014 32.4091 18.5014 31.1818C18.5014 29.9545 18.723 28.8939 19.1662 28C19.6094 27.1061 20.2173 26.4167 20.9901 25.9318C21.7628 25.447 22.6454 25.2045 23.6378 25.2045C24.6302 25.2045 25.5128 25.447 26.2855 25.9318C27.0582 26.4167 27.6662 27.1061 28.1094 28C28.5526 28.8939 28.7741 29.9545 28.7741 31.1818ZM27.4105 31.1818C27.4105 30.1742 27.242 29.3239 26.9048 28.6307C26.5715 27.9375 26.1188 27.4129 25.5469 27.0568C24.9787 26.7008 24.3423 26.5227 23.6378 26.5227C22.9332 26.5227 22.295 26.7008 21.723 27.0568C21.1548 27.4129 20.7022 27.9375 20.3651 28.6307C20.0317 29.3239 19.8651 30.1742 19.8651 31.1818C19.8651 32.1894 20.0317 33.0398 20.3651 33.733C20.7022 34.4261 21.1548 34.9508 21.723 35.3068C22.295 35.6629 22.9332 35.8409 23.6378 35.8409C24.3423 35.8409 24.9787 35.6629 25.5469 35.3068C26.1188 34.9508 26.5715 34.4261 26.9048 33.733C27.242 33.0398 27.4105 32.1894 27.4105 31.1818ZM39.098 29C38.973 28.6174 38.8082 28.2746 38.6037 27.9716C38.4029 27.6648 38.1624 27.4034 37.8821 27.1875C37.6056 26.9716 37.2912 26.8068 36.9389 26.6932C36.5866 26.5795 36.2003 26.5227 35.7798 26.5227C35.0904 26.5227 34.4635 26.7008 33.8991 27.0568C33.3348 27.4129 32.8859 27.9375 32.5526 28.6307C32.2192 29.3239 32.0526 30.1742 32.0526 31.1818C32.0526 32.1894 32.2211 33.0398 32.5582 33.733C32.8954 34.4261 33.3518 34.9508 33.9276 35.3068C34.5033 35.6629 35.151 35.8409 35.8707 35.8409C36.5374 35.8409 37.1245 35.6989 37.6321 35.4148C38.1435 35.1269 38.5412 34.7216 38.8253 34.1989C39.1132 33.6723 39.2571 33.053 39.2571 32.3409L39.6889 32.4318H36.1889V31.1818H40.6207V32.4318C40.6207 33.3902 40.4162 34.2235 40.0071 34.9318C39.6018 35.6402 39.0412 36.1894 38.3253 36.5795C37.6132 36.9659 36.795 37.1591 35.8707 37.1591C34.8404 37.1591 33.9351 36.9167 33.1548 36.4318C32.3783 35.947 31.7723 35.2576 31.3366 34.3636C30.9048 33.4697 30.6889 32.4091 30.6889 31.1818C30.6889 30.2614 30.812 29.4337 31.0582 28.6989C31.3082 27.9602 31.6605 27.3314 32.1151 26.8125C32.5696 26.2936 33.1075 25.8958 33.7287 25.6193C34.3499 25.3428 35.0336 25.2045 35.7798 25.2045C36.3935 25.2045 36.9654 25.2973 37.4957 25.483C38.0298 25.6648 38.5052 25.9242 38.9219 26.2614C39.3423 26.5947 39.6927 26.9943 39.973 27.4602C40.2533 27.9223 40.4465 28.4356 40.5526 29H39.098ZM52.8523 31.1818C52.8523 32.4091 52.6307 33.4697 52.1875 34.3636C51.7443 35.2576 51.1364 35.947 50.3636 36.4318C49.5909 36.9167 48.7083 37.1591 47.7159 37.1591C46.7235 37.1591 45.8409 36.9167 45.0682 36.4318C44.2955 35.947 43.6875 35.2576 43.2443 34.3636C42.8011 33.4697 42.5795 32.4091 42.5795 31.1818C42.5795 29.9545 42.8011 28.8939 43.2443 28C43.6875 27.1061 44.2955 26.4167 45.0682 25.9318C45.8409 25.447 46.7235 25.2045 47.7159 25.2045C48.7083 25.2045 49.5909 25.447 50.3636 25.9318C51.1364 26.4167 51.7443 27.1061 52.1875 28C52.6307 28.8939 52.8523 29.9545 52.8523 31.1818ZM51.4886 31.1818C51.4886 30.1742 51.3201 29.3239 50.983 28.6307C50.6496 27.9375 50.197 27.4129 49.625 27.0568C49.0568 26.7008 48.4205 26.5227 47.7159 26.5227C47.0114 26.5227 46.3731 26.7008 45.8011 27.0568C45.233 27.4129 44.7803 27.9375 44.4432 28.6307C44.1098 29.3239 43.9432 30.1742 43.9432 31.1818C43.9432 32.1894 44.1098 33.0398 44.4432 33.733C44.7803 34.4261 45.233 34.9508 45.8011 35.3068C46.3731 35.6629 47.0114 35.8409 47.7159 35.8409C48.4205 35.8409 49.0568 35.6629 49.625 35.3068C50.197 34.9508 50.6496 34.4261 50.983 33.733C51.3201 33.0398 51.4886 32.1894 51.4886 31.1818Z" fill="white"/>
<defs>
<linearGradient id="paint0_linear_433_4" x1="0" y1="32" x2="64" y2="32" gradientUnits="userSpaceOnUse">
<stop stop-color="#B5BFE6"/>
<stop offset="1" stop-color="#E2B5E6"/>
</linearGradient>
</defs>
</svg>
